<svg width="12" height="13" viewBox="0 0 12 13" fill="none" xmlns="http://www.w3.org/2000/svg">
<path d="M0.203123 10.8175L5.01037 6.00061L0.203123 1.19336C-0.0677077 0.922534 -0.0677077 0.467925 0.203123 0.206766C0.473954 -0.0737371 0.91889 -0.0640646 1.18972 0.206766L5.99697 5.01401L10.8139 0.206766C11.075 -0.0640646 11.5297 -0.0737371 11.8005 0.206766C12.0713 0.467925 12.0616 0.922534 11.8005 1.19336L6.98357 6.00061L11.8005 10.8175C12.0616 11.0787 12.0713 11.5333 11.8005 11.8041C11.5297 12.075 11.075 12.0653 10.8139 11.8041L5.99697 6.98721L1.18972 11.8041C0.91889 12.0653 0.473954 12.075 0.203123 11.8041C-0.0677077 11.5333 -0.0677077 11.0787 0.203123 10.8175Z" fill="#505761"/>
</svg>
