<svg width="28" height="28" viewBox="0 0 28 28" fill="none" xmlns="http://www.w3.org/2000/svg">
<rect width="28" height="28" rx="14" fill="#9E9E9E"/>
<path d="M12.7217 8.73047C12.7217 9.40039 13.248 9.93359 13.918 9.93359C14.5947 9.93359 15.1211 9.40039 15.1211 8.73047C15.1211 8.05371 14.5947 7.52051 13.918 7.52051C13.248 7.52051 12.7217 8.05371 12.7217 8.73047ZM10.9854 17.166C10.9922 17.7402 11.3887 18.0957 12.0039 18.0957H15.9893C16.6113 18.0957 17.001 17.7402 17.0078 17.166C17.0146 16.585 16.625 16.2227 15.9893 16.2227H15.1348V12.0869C15.1348 11.499 14.7588 11.1436 14.1777 11.1436H12.1748C11.5459 11.1436 11.1562 11.5059 11.1631 12.0938C11.1699 12.668 11.5596 13.0234 12.1748 13.0234H13.1797V16.2227H12.0039C11.3682 16.2227 10.9785 16.585 10.9854 17.166Z" fill="white"/>
</svg>
