<svg width="30" height="27" viewBox="0 0 30 27" fill="none" xmlns="http://www.w3.org/2000/svg">
<path fill-rule="evenodd" clip-rule="evenodd" d="M29.7656 15.7261C29.7656 19.8212 28.188 23.6636 25.4337 26.5L22.7541 23.7331C24.8032 21.6229 25.9735 18.7725 25.9735 15.7261C25.9735 9.4766 21.0605 4.41037 15 4.41037C8.9395 4.41037 4.02649 9.4766 4.02649 15.7261C4.02649 18.5415 5.02487 21.1918 6.80398 23.2507L3.97276 25.8521C1.58056 23.0837 0.234375 19.5102 0.234375 15.7261C0.234375 7.31696 6.84517 0.5 15 0.5C23.1548 0.5 29.7656 7.31696 29.7656 15.7261ZM22.5517 15.6627C22.5517 17.7975 21.7284 19.8027 20.2926 21.2813L17.613 18.5144C18.3436 17.762 18.7596 16.7488 18.7596 15.6627C18.7596 13.4369 17.0098 11.6325 14.8513 11.6325C12.6929 11.6325 10.9431 13.4369 10.9431 15.6627C10.9431 16.6666 11.2979 17.6084 11.932 18.3422L9.10079 20.9437C7.85359 19.5003 7.15097 17.6352 7.15097 15.6627C7.15097 11.2772 10.5985 7.72214 14.8513 7.72214C19.1041 7.72214 22.5517 11.2772 22.5517 15.6627Z" fill="#6A7FF9"/>
</svg>
