<svg width="28" height="28" viewBox="0 0 28 28" fill="none" xmlns="http://www.w3.org/2000/svg">
<rect width="28" height="28" rx="14" fill="#6A7FF9"/>
<path d="M14 8.15137C13.4531 8.15137 13.084 8.52734 13.084 9.09473V16.3477L13.1455 17.7559L11.8193 16.2383L10.3496 14.7686C10.1855 14.5977 9.9668 14.4814 9.69336 14.4814C9.20117 14.4814 8.8252 14.8506 8.8252 15.3633C8.8252 15.6094 8.9209 15.835 9.1123 16.0264L13.3232 20.2441C13.4941 20.415 13.7539 20.5176 14 20.5176C14.2461 20.5176 14.5059 20.415 14.6768 20.2441L18.8945 16.0264C19.0791 15.835 19.1748 15.6094 19.1748 15.3633C19.1748 14.8506 18.7988 14.4814 18.3066 14.4814C18.0332 14.4814 17.8213 14.5977 17.6504 14.7686L16.1738 16.2383L14.8545 17.7559L14.916 16.3477V9.09473C14.916 8.52734 14.5469 8.15137 14 8.15137Z" fill="white"/>
</svg>
