<svg width="28" height="28" viewBox="0 0 28 28" fill="none" xmlns="http://www.w3.org/2000/svg">
<rect width="28" height="28" rx="14" fill="#FF5353"/>
<path d="M14 20.5176C14.5469 20.5176 14.916 20.1416 14.916 19.5742V12.3213L14.8545 10.9131L16.1738 12.4307L17.6504 13.9004C17.8213 14.0713 18.0332 14.1875 18.3066 14.1875C18.7988 14.1875 19.1748 13.8184 19.1748 13.3057C19.1748 13.0596 19.0791 12.834 18.8945 12.6426L14.6768 8.4248C14.5059 8.25391 14.2461 8.15137 14 8.15137C13.7539 8.15137 13.4941 8.25391 13.3232 8.4248L9.1123 12.6426C8.9209 12.834 8.8252 13.0596 8.8252 13.3057C8.8252 13.8184 9.20117 14.1875 9.69336 14.1875C9.9668 14.1875 10.1855 14.0713 10.3496 13.9004L11.8193 12.4307L13.1455 10.9131L13.084 12.3213V19.5742C13.084 20.1416 13.4531 20.5176 14 20.5176Z" fill="white"/>
</svg>
