<svg width="32" height="33" viewBox="0 0 32 33" fill="none" xmlns="http://www.w3.org/2000/svg">
<rect opacity="0.3" y="0.75" width="32" height="31.5" rx="15.75" fill="#6A7FF9"/>
<path fill-rule="evenodd" clip-rule="evenodd" d="M9.4375 16.5H22.5625Z" fill="#3800FF"/>
<path d="M9.4375 16.5H22.5625" stroke="#6A7FF9" stroke-width="0.875" stroke-linecap="round"/>
<path fill-rule="evenodd" clip-rule="evenodd" d="M9.4375 21.5244H22.5625Z" fill="#3800FF"/>
<path d="M9.4375 21.5244H22.5625" stroke="#6A7FF9" stroke-width="0.875" stroke-linecap="round"/>
<path fill-rule="evenodd" clip-rule="evenodd" d="M9.4375 11.4756H22.5625Z" fill="#3800FF"/>
<path d="M9.4375 11.4756H22.5625" stroke="#6A7FF9" stroke-width="0.875" stroke-linecap="round"/>
<path fill-rule="evenodd" clip-rule="evenodd" d="M13.0833 12.9111C13.8887 12.9111 14.5417 12.2684 14.5417 11.4756C14.5417 10.6828 13.8887 10.04 13.0833 10.04C12.2779 10.04 11.625 10.6828 11.625 11.4756C11.625 12.2684 12.2779 12.9111 13.0833 12.9111Z" fill="#6A7FF9" stroke="#6A7FF9" stroke-width="0.875"/>
<path fill-rule="evenodd" clip-rule="evenodd" d="M13.0833 22.96C13.8887 22.96 14.5417 22.3172 14.5417 21.5244C14.5417 20.7316 13.8887 20.0889 13.0833 20.0889C12.2779 20.0889 11.625 20.7316 11.625 21.5244C11.625 22.3172 12.2779 22.96 13.0833 22.96Z" fill="#6A7FF9" stroke="#6A7FF9" stroke-width="0.875"/>
<path fill-rule="evenodd" clip-rule="evenodd" d="M18.9166 17.9355C19.722 17.9355 20.3749 17.2928 20.3749 16.5C20.3749 15.7072 19.722 15.0645 18.9166 15.0645C18.1112 15.0645 17.4583 15.7072 17.4583 16.5C17.4583 17.2928 18.1112 17.9355 18.9166 17.9355Z" fill="#6A7FF9" stroke="#6A7FF9" stroke-width="0.875"/>
</svg>
