<svg width="28" height="28" viewBox="0 0 28 28" fill="none" xmlns="http://www.w3.org/2000/svg">
<rect width="28" height="28" rx="14" fill="#9E9E9E"/>
<path d="M14 20.1533C17.7393 20.1533 20.8154 17.0771 20.8154 13.3379C20.8154 9.59863 17.7393 6.52246 14 6.52246C10.2607 6.52246 7.18457 9.59863 7.18457 13.3379C7.18457 17.0771 10.2607 20.1533 14 20.1533ZM14 18.4854C11.1494 18.4854 8.85254 16.1885 8.85254 13.3379C8.85254 10.4805 11.1426 8.18359 14 8.18359C16.8506 8.18359 19.1475 10.4805 19.1543 13.3379C19.1543 16.1885 16.8574 18.4854 14 18.4854ZM10.9102 14.3018H14C14.3418 14.3018 14.6152 14.0352 14.6152 13.6934V9.64648C14.6152 9.30469 14.3418 9.03809 14 9.03809C13.6582 9.03809 13.3848 9.30469 13.3848 9.64648V13.0781H10.9102C10.5684 13.0781 10.3018 13.3447 10.3018 13.6934C10.3018 14.0352 10.5684 14.3018 10.9102 14.3018Z" fill="white"/>
</svg>
