<svg width="20" height="20" viewBox="0 0 20 20" fill="none" xmlns="http://www.w3.org/2000/svg">
<rect opacity="0.2" width="19.3707" height="19.3707" rx="9.68536" fill="#6A7FF9"/>
<path fill-rule="evenodd" clip-rule="evenodd" d="M13.2379 8.15374C13.3056 8.95049 12.9523 9.42148 12.3954 9.68226C13.3013 9.90922 13.8626 10.4402 13.7309 11.6046C13.5679 13.0508 12.4402 13.4189 10.8368 13.478L10.8114 15L9.85856 14.9826L9.8837 13.481C9.63677 13.4767 9.38388 13.4701 9.12262 13.4601L9.09781 14.9686L8.14596 14.951L8.17066 13.4263C8.0816 13.4242 7.99188 13.4216 7.90153 13.419L7.90147 13.419C7.76573 13.4151 7.62856 13.4112 7.49003 13.4085L6.25 13.3858L6.45737 12.2934C6.45737 12.2934 7.16206 12.3169 7.15003 12.3062C7.4197 12.3107 7.49417 12.1255 7.51304 12.0089L7.55289 9.60299C7.57623 9.60322 7.59913 9.60367 7.62123 9.6041L7.65355 9.60471C7.6143 9.5988 7.57957 9.59709 7.55294 9.59647L7.58113 7.87908C7.54766 7.6922 7.42559 7.47412 7.03963 7.46693C7.05153 7.45467 6.34766 7.45468 6.34766 7.45468L6.36354 6.47463L7.67778 6.49916L7.67783 6.50384C7.87538 6.50734 8.07804 6.50736 8.28441 6.50709L8.30957 5L9.26193 5.01749L9.23747 6.495C9.49194 6.49478 9.74808 6.49471 9.99858 6.49927L10.0227 5.03148L10.9756 5.04886L10.9508 6.55638C12.1791 6.68271 13.1473 7.06492 13.2379 8.15374ZM11.8511 11.3894C11.8688 10.3205 10.2297 10.3277 9.42996 10.3312C9.34059 10.3316 9.2617 10.3319 9.19677 10.3307L9.16327 12.3508C9.21658 12.3518 9.27927 12.3538 9.34946 12.356C10.1295 12.3807 11.8344 12.4348 11.8511 11.3894ZM9.43781 7.57386C10.1049 7.56908 11.4707 7.55929 11.4548 8.53119C11.4389 9.48146 10.0195 9.43293 9.36871 9.41069C9.30957 9.40866 9.25678 9.40686 9.21197 9.40604L9.24219 7.57388C9.29658 7.57488 9.36277 7.5744 9.43781 7.57386Z" fill="#6A7FF9"/>
</svg>
