<svg width="41" height="40" viewBox="0 0 41 40" fill="none" xmlns="http://www.w3.org/2000/svg">
<g clip-path="url(#clip0)">
<rect x="0.5" width="40" height="40" rx="20" fill="white" fill-opacity="0.2"/>
<path d="M20.5 10.1152C17.9316 10.1152 15.6172 11.9512 15.6172 15.623V17.8496C14.5918 17.9473 14.084 18.5332 14.084 19.7441V26.8242C14.084 28.1426 14.6797 28.7383 15.8906 28.7383H25.0996C26.3203 28.7383 26.916 28.1426 26.916 26.8242V19.7344C26.916 18.5234 26.4082 17.918 25.3828 17.8301V15.623C25.3828 11.9512 23.0684 10.1152 20.5 10.1152ZM16.8867 15.4766C16.8867 12.8301 18.498 11.3359 20.5 11.3359C22.502 11.3359 24.1035 12.8301 24.1035 15.4766V17.8203L16.8867 17.8398V15.4766Z" fill="white"/>
</g>
<defs>
<clipPath id="clip0">
<rect width="40" height="40" fill="white" transform="translate(0.5)"/>
</clipPath>
</defs>
</svg>
